<svg xmlns="http://www.w3.org/2000/svg" width="26" height="26" viewBox="0 0 80 79">
  <g id="time-machine" transform="translate(-0.5 -1)">
    <rect id="Rectangle_138857" data-name="Rectangle 138857" width="80" height="79" transform="translate(0.5 1)" fill="none"/>
    <g id="Group_47521" data-name="Group 47521" transform="translate(2.442 2.442)">
      <path id="Path_47538" data-name="Path 47538" d="M39.528,2A37.571,37.571,0,0,0,2,39.528a2.5,2.5,0,1,0,5,0A32.534,32.534,0,1,1,19.552,65.19l5.817-5.4a1.251,1.251,0,0,0-.569-2.135L6.036,53.321a1.251,1.251,0,0,0-1.515,1.43L7.736,73.515a1.251,1.251,0,0,0,.832.973,1.227,1.227,0,0,0,.4.066,1.258,1.258,0,0,0,.852-.334l6.028-5.593A37.528,37.528,0,1,0,39.528,2Z" transform="translate(-2 -2)" fill="#0a214a"/>
      <path id="Path_47539" data-name="Path 47539" d="M35.471,37.24,47.758,49.527l1.769-1.769L37.24,35.471A7.562,7.562,0,0,1,35.471,37.24Z" transform="translate(6.399 6.399)" fill="#0a214a"/>
      <path id="Path_47540" data-name="Path 47540" d="M47.755,20.235,37.044,30.947a4.48,4.48,0,0,0-2.559,0L21.271,17.733a2.5,2.5,0,1,0-3.538,3.538L30.947,34.484a5,5,0,1,0,9.632,0L51.291,23.773a2.5,2.5,0,1,0-3.538-3.538Z" transform="translate(1.764 1.764)" fill="#0a214a"/>
    </g>
  </g>
</svg>
